<svg width="358" height="274" viewBox="0 0 358 274" fill="none" xmlns="http://www.w3.org/2000/svg">
<g clip-path="url(#clip0_3488_36365)">
<path d="M71.5325 205.164C71.2444 204.679 69.998 205.198 69.7689 204.758C69.5406 204.319 70.6986 203.65 71.3602 202.122C71.4795 201.847 72.2314 200.111 71.6748 199.575C70.6198 198.56 65.792 202.75 64.1025 201.379C63.7317 201.078 63.4727 200.477 62.3505 199.502C61.904 199.114 61.6341 198.938 61.3728 199.004C61.0021 199.096 60.9727 199.592 60.5752 200.566C59.9791 202.028 59.6265 201.94 59.2792 203.106C59.0213 203.972 59.0802 204.475 58.7768 204.573C58.3475 204.712 57.9522 203.794 57.4081 203.876C56.8529 203.96 56.5172 205.029 56.4111 205.83C56.2122 207.332 56.7643 208.323 57.0703 209.365C57.4029 210.498 57.6003 212.221 56.8323 214.659L49.2305 236.059C50.9087 231.668 55.768 219.631 57.8099 215.158C58.3993 213.866 59.0502 212.556 60.3866 212.04C61.6732 211.542 63.4402 211.839 65.6929 211.297C65.956 211.233 66.6861 211.048 66.778 210.619C66.8539 210.264 66.4245 210.066 66.4905 209.734C66.579 209.288 67.4235 209.283 68.4612 208.769C69.193 208.406 69.6489 207.975 70.0409 207.604C70.1591 207.492 71.916 205.81 71.5325 205.164Z" fill="#F2F2F2"/>
<path d="M41.6246 216.43C41.303 216.431 41.1987 217.193 40.9162 217.178C40.6347 217.163 40.6403 216.402 40.0808 215.637C39.9799 215.499 39.3439 214.629 38.9202 214.748C38.117 214.972 38.7825 218.549 37.6214 218.982C37.3666 219.077 36.9967 219.03 36.1937 219.299C35.8743 219.406 35.7104 219.488 35.667 219.635C35.6055 219.843 35.8405 220.001 36.2046 220.477C36.7506 221.191 36.6055 221.339 37.0782 221.845C37.4291 222.222 37.6933 222.338 37.654 222.515C37.5982 222.766 37.0331 222.694 36.9165 222.985C36.7975 223.282 37.2259 223.755 37.5885 224.038C38.269 224.569 38.9153 224.584 39.5156 224.735C40.168 224.898 41.0711 225.299 42.0475 226.379L50.3663 236.281C48.6934 234.191 44.1824 228.335 42.5742 226.043C42.11 225.381 41.6544 224.684 41.786 223.88C41.9128 223.105 42.5686 222.325 42.9522 221.063C42.997 220.916 43.1165 220.505 42.9322 220.336C42.7799 220.196 42.5587 220.35 42.4146 220.221C42.2212 220.049 42.4622 219.634 42.5091 218.976C42.5421 218.513 42.4619 218.165 42.3929 217.866C42.3721 217.776 42.0527 216.429 41.6246 216.43Z" fill="#F2F2F2"/>
<path d="M48.0399 217.869L47.8462 216.141L47.9347 216.01C48.3443 215.404 48.5531 214.813 48.5556 214.251C48.556 214.162 48.5518 214.073 48.5477 213.982C48.531 213.621 48.5101 213.173 48.7439 212.651C48.875 212.36 49.2433 211.686 49.7969 211.769C49.946 211.79 50.0587 211.858 50.1443 211.938C50.1568 211.918 50.1698 211.898 50.1836 211.877C50.356 211.614 50.4925 211.501 50.6241 211.393C50.7251 211.309 50.8295 211.223 50.9932 211.02C51.065 210.93 51.1209 210.852 51.1681 210.786C51.3113 210.587 51.4984 210.349 51.8283 210.353C52.1807 210.37 52.3652 210.661 52.4875 210.854C52.7059 211.197 52.8049 211.445 52.8704 211.61C52.8942 211.67 52.9214 211.737 52.9352 211.758C53.0487 211.925 53.9719 211.769 54.3197 211.712C55.1009 211.582 55.7769 211.469 56.0554 211.962C56.255 212.314 56.1068 212.779 55.6016 213.383C55.4441 213.57 55.2767 213.713 55.1281 213.825C55.2512 213.898 55.3615 214.011 55.4061 214.188C55.5114 214.607 55.151 215.026 54.3356 215.437C54.1331 215.539 53.8604 215.676 53.4784 215.742C53.2984 215.773 53.1364 215.781 52.9978 215.785C52.9949 215.865 52.9761 215.952 52.9272 216.041C52.784 216.304 52.4859 216.429 52.0366 216.399C51.5422 216.373 51.1351 216.279 50.7761 216.196C50.4625 216.124 50.1923 216.063 49.9802 216.078C49.5869 216.109 49.2838 216.424 48.928 216.832L48.0399 217.869Z" fill="#F2F2F2"/>
<path d="M48.9385 207.581L47.3148 208.206L47.1655 208.154C46.4752 207.912 45.8495 207.86 45.3053 208C45.2187 208.022 45.1334 208.049 45.0464 208.076C44.7017 208.183 44.2732 208.317 43.7082 208.224C43.393 208.171 42.647 207.986 42.5873 207.43C42.5697 207.28 42.6073 207.154 42.6632 207.051C42.6406 207.044 42.6179 207.037 42.5934 207.029C42.2952 206.929 42.1516 206.825 42.0132 206.726C41.9068 206.649 41.7971 206.57 41.5585 206.464C41.4539 206.417 41.3637 206.383 41.288 206.354C41.0586 206.266 40.7809 206.146 40.7013 205.826C40.628 205.481 40.8631 205.229 41.0187 205.062C41.2961 204.763 41.5109 204.605 41.6534 204.5C41.7055 204.462 41.7641 204.418 41.7808 204.4C41.9135 204.247 41.5283 203.395 41.3852 203.073C41.061 202.351 40.7805 201.726 41.1864 201.332C41.4767 201.05 41.965 201.075 42.6772 201.41C42.8989 201.515 43.0795 201.641 43.2254 201.756C43.2652 201.618 43.3463 201.483 43.5062 201.395C43.8851 201.187 44.3828 201.429 44.987 202.113C45.1377 202.283 45.3394 202.511 45.5001 202.864C45.5756 203.03 45.624 203.185 45.6632 203.318C45.7415 203.3 45.8303 203.296 45.9291 203.321C46.2198 203.393 46.4166 203.649 46.5015 204.091C46.6019 204.575 46.6138 204.993 46.625 205.361C46.635 205.682 46.6446 205.958 46.7121 206.16C46.8426 206.532 47.224 206.745 47.7092 206.985L48.9385 207.581Z" fill="#F2F2F2"/>
<path d="M48.0399 202.49L47.8462 200.762L47.9347 200.631C48.3443 200.025 48.5531 199.433 48.5556 198.872C48.556 198.783 48.5518 198.693 48.5477 198.602C48.531 198.242 48.5101 197.794 48.7439 197.272C48.875 196.98 49.2433 196.306 49.7969 196.39C49.946 196.41 50.0587 196.479 50.1443 196.559C50.1568 196.539 50.1698 196.519 50.1836 196.497C50.356 196.234 50.4925 196.122 50.6241 196.013C50.7251 195.93 50.8295 195.844 50.9932 195.64C51.065 195.551 51.1209 195.473 51.1681 195.407C51.3113 195.207 51.4984 194.97 51.8283 194.974C52.1807 194.99 52.3652 195.282 52.4875 195.474C52.7059 195.818 52.8049 196.066 52.8704 196.23C52.8942 196.29 52.9214 196.358 52.9352 196.379C53.0487 196.546 53.9719 196.39 54.3197 196.333C55.1009 196.203 55.7769 196.09 56.0554 196.582C56.255 196.934 56.1068 197.4 55.6016 198.003C55.4441 198.191 55.2767 198.334 55.1281 198.445C55.2512 198.519 55.3615 198.632 55.4061 198.808C55.5114 199.227 55.151 199.647 54.3356 200.057C54.1331 200.16 53.8604 200.297 53.4784 200.363C53.2984 200.394 53.1364 200.401 52.9978 200.405C52.9949 200.486 52.9761 200.572 52.9272 200.662C52.784 200.924 52.4859 201.05 52.0366 201.02C51.5422 200.994 51.1351 200.899 50.7761 200.817C50.4625 200.745 50.1923 200.684 49.9802 200.698C49.5869 200.73 49.2838 201.045 48.928 201.453L48.0399 202.49Z" fill="#F2F2F2"/>
<path d="M49.8094 236.031L49.447 235.804L49.0244 235.853C49.0178 235.813 48.9948 235.723 48.9601 235.582C48.771 234.81 48.1944 232.458 47.7134 228.755C47.3777 226.171 47.1877 223.513 47.1484 220.856C47.1092 218.194 47.2353 216.179 47.3363 214.56C47.4127 213.338 47.5054 212.175 47.5965 211.042C47.8386 208.015 48.067 205.155 47.8971 201.99C47.8595 201.283 47.7806 199.812 46.9205 198.247C46.4215 197.339 45.7342 196.533 44.8774 195.852L45.4102 195.183C46.3559 195.936 47.1163 196.828 47.6704 197.836C48.624 199.572 48.71 201.175 48.7514 201.945C48.9242 205.166 48.6933 208.053 48.4486 211.109C48.3585 212.238 48.2658 213.396 48.1898 214.613C48.0896 216.217 47.9647 218.215 48.0036 220.842C48.042 223.468 48.2299 226.093 48.561 228.645C49.0361 232.302 49.6044 234.618 49.791 235.379C49.8904 235.785 49.9113 235.87 49.8094 236.031Z" fill="#F2F2F2"/>
<path d="M43.3092 197.21C43.2742 197.21 43.2387 197.209 43.2028 197.207C42.4746 197.167 41.8003 196.732 41.1982 195.913C40.9159 195.527 40.7714 195.087 40.4833 194.21C40.4387 194.075 40.2215 193.389 40.0896 192.446C40.0032 191.829 40.014 191.571 40.1364 191.344C40.2721 191.09 40.4917 190.913 40.7389 190.794C40.728 190.712 40.7368 190.628 40.7723 190.542C40.918 190.185 41.3055 190.232 41.5151 190.255C41.6211 190.268 41.7535 190.286 41.8963 190.278C42.1209 190.267 42.2416 190.2 42.4245 190.1C42.5994 190.004 42.817 189.885 43.1397 189.819C43.7761 189.686 44.3092 189.867 44.485 189.926C45.4099 190.234 45.8658 190.952 46.3936 191.784C46.4988 191.951 46.86 192.558 47.0984 193.391C47.2704 193.992 47.2462 194.259 47.1944 194.457C47.0892 194.865 46.8408 195.099 46.2099 195.615C45.551 196.154 45.2203 196.425 44.9364 196.589C44.2754 196.97 43.8604 197.21 43.3092 197.21Z" fill="#F2F2F2"/>
<path d="M315.111 205.711C314.823 205.226 313.577 205.745 313.347 205.305C313.119 204.866 314.277 204.197 314.939 202.669C315.058 202.394 315.81 200.658 315.253 200.122C314.198 199.106 309.371 203.297 307.681 201.926C307.31 201.625 307.051 201.024 305.929 200.049C305.483 199.66 305.213 199.485 304.951 199.55C304.581 199.643 304.551 200.139 304.154 201.113C303.558 202.575 303.205 202.487 302.858 203.653C302.6 204.519 302.659 205.022 302.355 205.12C301.926 205.259 301.531 204.341 300.987 204.423C300.431 204.507 300.096 205.576 299.99 206.376C299.791 207.879 300.343 208.87 300.649 209.912C300.981 211.045 301.179 212.768 300.411 215.206L292.809 236.606C294.487 232.215 299.347 220.178 301.388 215.704C301.978 214.413 302.629 213.103 303.965 212.586C305.252 212.089 307.019 212.386 309.271 211.844C309.535 211.78 310.265 211.595 310.357 211.166C310.433 210.811 310.003 210.613 310.069 210.281C310.158 209.835 311.002 209.83 312.04 209.315C312.772 208.953 313.227 208.522 313.62 208.151C313.738 208.039 315.495 206.357 315.111 205.711Z" fill="#F2F2F2"/>
<path d="M285.203 216.977C284.882 216.978 284.777 217.739 284.495 217.725C284.213 217.71 284.219 216.949 283.659 216.184C283.558 216.046 282.923 215.176 282.499 215.295C281.696 215.519 282.361 219.096 281.2 219.529C280.945 219.624 280.575 219.577 279.772 219.846C279.453 219.953 279.289 220.035 279.246 220.182C279.184 220.39 279.419 220.548 279.783 221.024C280.329 221.738 280.184 221.885 280.657 222.392C281.008 222.768 281.272 222.885 281.233 223.062C281.177 223.312 280.612 223.241 280.495 223.532C280.376 223.828 280.804 224.302 281.167 224.584C281.848 225.115 282.494 225.131 283.094 225.281C283.747 225.445 284.65 225.845 285.626 226.926L293.945 236.828C292.272 234.738 287.761 228.882 286.153 226.59C285.689 225.928 285.233 225.231 285.365 224.427C285.491 223.652 286.147 222.871 286.531 221.61C286.576 221.463 286.695 221.051 286.511 220.883C286.359 220.743 286.137 220.896 285.993 220.768C285.8 220.596 286.041 220.18 286.088 219.523C286.121 219.06 286.04 218.712 285.971 218.413C285.951 218.322 285.631 216.975 285.203 216.977Z" fill="#F2F2F2"/>
<path d="M291.619 218.416L291.425 216.688L291.513 216.557C291.923 215.951 292.132 215.36 292.134 214.798C292.135 214.709 292.13 214.62 292.126 214.529C292.11 214.168 292.089 213.72 292.322 213.198C292.454 212.907 292.822 212.232 293.376 212.316C293.525 212.337 293.637 212.405 293.723 212.485C293.735 212.465 293.748 212.445 293.762 212.424C293.935 212.161 294.071 212.048 294.203 211.94C294.304 211.856 294.408 211.77 294.572 211.567C294.644 211.477 294.7 211.399 294.747 211.333C294.89 211.134 295.077 210.896 295.407 210.9C295.759 210.917 295.944 211.208 296.066 211.401C296.285 211.744 296.383 211.992 296.449 212.157C296.473 212.217 296.5 212.284 296.514 212.305C296.627 212.472 297.551 212.316 297.898 212.259C298.68 212.129 299.356 212.016 299.634 212.509C299.834 212.861 299.685 213.326 299.18 213.93C299.023 214.117 298.855 214.26 298.707 214.372C298.83 214.445 298.94 214.558 298.985 214.735C299.09 215.154 298.73 215.573 297.914 215.984C297.712 216.086 297.439 216.223 297.057 216.289C296.877 216.32 296.715 216.328 296.576 216.332C296.573 216.412 296.555 216.499 296.506 216.588C296.363 216.851 296.064 216.976 295.615 216.946C295.121 216.92 294.714 216.826 294.355 216.743C294.041 216.671 293.771 216.61 293.559 216.625C293.165 216.656 292.862 216.971 292.507 217.379L291.619 218.416Z" fill="#F2F2F2"/>
<path d="M292.517 208.127L290.893 208.753L290.744 208.701C290.054 208.458 289.428 208.407 288.884 208.547C288.797 208.569 288.712 208.596 288.625 208.623C288.28 208.73 287.852 208.864 287.287 208.771C286.972 208.718 286.226 208.533 286.166 207.977C286.148 207.827 286.186 207.701 286.242 207.598C286.219 207.591 286.197 207.583 286.172 207.576C285.874 207.476 285.73 207.372 285.592 207.273C285.485 207.196 285.376 207.117 285.137 207.011C285.032 206.964 284.942 206.93 284.867 206.901C284.637 206.813 284.36 206.692 284.28 206.373C284.207 206.028 284.442 205.776 284.597 205.608C284.875 205.31 285.09 205.152 285.232 205.047C285.284 205.008 285.343 204.965 285.359 204.946C285.492 204.794 285.107 203.942 284.964 203.62C284.64 202.898 284.359 202.273 284.765 201.879C285.055 201.597 285.544 201.622 286.256 201.957C286.477 202.062 286.658 202.187 286.804 202.303C286.844 202.165 286.925 202.03 287.085 201.942C287.464 201.734 287.961 201.976 288.566 202.66C288.716 202.83 288.918 203.058 289.079 203.411C289.154 203.577 289.203 203.732 289.242 203.865C289.32 203.847 289.409 203.843 289.508 203.868C289.798 203.939 289.995 204.196 290.08 204.638C290.18 205.122 290.192 205.539 290.204 205.907C290.214 206.229 290.223 206.505 290.291 206.707C290.421 207.079 290.803 207.292 291.288 207.532L292.517 208.127Z" fill="#F2F2F2"/>
<path d="M291.619 203.037L291.425 201.309L291.513 201.178C291.923 200.572 292.132 199.98 292.134 199.419C292.135 199.329 292.13 199.24 292.126 199.149C292.11 198.789 292.089 198.341 292.322 197.818C292.454 197.527 292.822 196.853 293.376 196.936C293.525 196.957 293.637 197.026 293.723 197.106C293.735 197.086 293.748 197.066 293.762 197.044C293.935 196.781 294.071 196.669 294.203 196.56C294.304 196.477 294.408 196.391 294.572 196.187C294.644 196.098 294.7 196.02 294.747 195.954C294.89 195.754 295.077 195.516 295.407 195.521C295.759 195.537 295.944 195.828 296.066 196.021C296.285 196.365 296.383 196.613 296.449 196.777C296.473 196.837 296.5 196.905 296.514 196.926C296.627 197.093 297.551 196.936 297.898 196.88C298.68 196.75 299.356 196.637 299.634 197.129C299.834 197.481 299.685 197.947 299.18 198.55C299.023 198.738 298.855 198.881 298.707 198.992C298.83 199.066 298.94 199.178 298.985 199.355C299.09 199.774 298.73 200.194 297.914 200.604C297.712 200.707 297.439 200.844 297.057 200.91C296.877 200.941 296.715 200.948 296.576 200.952C296.573 201.032 296.555 201.119 296.506 201.208C296.363 201.471 296.064 201.596 295.615 201.566C295.121 201.541 294.714 201.446 294.355 201.364C294.041 201.292 293.771 201.231 293.559 201.245C293.165 201.277 292.862 201.591 292.507 201.999L291.619 203.037Z" fill="#F2F2F2"/>
<path d="M293.388 236.578L293.026 236.351L292.603 236.399C292.596 236.36 292.573 236.27 292.539 236.129C292.35 235.356 291.773 233.005 291.292 229.302C290.956 226.717 290.766 224.06 290.727 221.403C290.688 218.741 290.814 216.726 290.915 215.106C290.991 213.885 291.084 212.722 291.175 211.589C291.417 208.562 291.646 205.702 291.476 202.537C291.438 201.83 291.359 200.359 290.499 198.794C290 197.886 289.313 197.08 288.456 196.399L288.989 195.73C289.935 196.483 290.695 197.375 291.249 198.383C292.203 200.119 292.289 201.722 292.33 202.492C292.503 205.713 292.272 208.6 292.027 211.656C291.937 212.785 291.844 213.943 291.768 215.16C291.668 216.764 291.543 218.762 291.582 221.389C291.621 224.015 291.808 226.64 292.14 229.192C292.615 232.848 293.183 235.165 293.37 235.926C293.469 236.332 293.49 236.417 293.388 236.578Z" fill="#F2F2F2"/>
<path d="M286.888 197.757C286.853 197.757 286.817 197.756 286.781 197.753C286.053 197.714 285.379 197.279 284.777 196.459C284.495 196.074 284.35 195.634 284.062 194.757C284.017 194.622 283.8 193.936 283.668 192.993C283.582 192.376 283.593 192.118 283.715 191.89C283.851 191.637 284.07 191.46 284.317 191.341C284.307 191.259 284.315 191.175 284.351 191.089C284.497 190.732 284.884 190.779 285.094 190.802C285.2 190.815 285.332 190.832 285.475 190.825C285.7 190.814 285.82 190.747 286.003 190.647C286.178 190.551 286.396 190.432 286.718 190.366C287.355 190.233 287.888 190.414 288.064 190.473C288.988 190.781 289.444 191.499 289.972 192.331C290.077 192.498 290.439 193.105 290.677 193.938C290.849 194.539 290.825 194.806 290.773 195.004C290.668 195.412 290.419 195.646 289.788 196.162C289.13 196.701 288.799 196.972 288.515 197.136C287.854 197.517 287.439 197.757 286.888 197.757Z" fill="#F2F2F2"/>
<path d="M175.33 106.701C195.886 106.701 212.551 90.0506 212.551 69.5116C212.551 48.9725 195.886 32.3223 175.33 32.3223C154.773 32.3223 138.109 48.9725 138.109 69.5116C138.109 90.0506 154.773 106.701 175.33 106.701Z" fill="#FF6884"/>
<path d="M319.137 235.805C319.137 236.058 318.931 236.264 318.677 236.264H0V235.345H318.677C318.931 235.345 319.137 235.551 319.137 235.805Z" fill="#E6E6E6"/>
<path d="M271.119 235.769C271.119 256.611 273.309 271.865 250.593 273.506C226.201 275.267 230.067 256.611 230.067 235.769C230.067 214.928 226.783 194.205 250.593 198.033C261.785 199.833 271.119 214.928 271.119 235.769Z" fill="#3F3D56"/>
<path d="M236.635 262.021C238.449 262.021 239.919 250.267 239.919 235.769C239.919 221.271 238.449 209.518 236.635 209.518C234.821 209.518 233.351 221.271 233.351 235.769C233.351 250.267 234.821 262.021 236.635 262.021Z" fill="#E6E6E6"/>
<path d="M106.711 202.208C106.711 220.6 108.643 234.062 88.5969 235.509C67.071 237.064 70.4828 220.6 70.4828 202.208C70.4828 183.816 67.5846 165.528 88.5969 168.906C98.4739 170.495 106.711 183.816 106.711 202.208Z" fill="#3F3D56"/>
<path d="M76.2796 225.374C77.8803 225.374 79.1778 215.002 79.1778 202.208C79.1778 189.413 77.8803 179.042 76.2796 179.042C74.6789 179.042 73.3813 189.413 73.3813 202.208C73.3813 215.002 74.6789 225.374 76.2796 225.374Z" fill="#E6E6E6"/>
<path d="M137.836 235.496C137.836 256.337 140.025 271.591 117.309 273.232C92.9169 274.994 96.7831 256.337 96.7831 235.496C96.7831 214.655 93.4989 193.932 117.309 197.76C128.502 199.559 137.836 214.655 137.836 235.496Z" fill="#3F3D56"/>
<path d="M103.351 261.747C105.165 261.747 106.635 249.994 106.635 235.496C106.635 220.998 105.165 209.245 103.351 209.245C101.537 209.245 100.067 220.998 100.067 235.496C100.067 249.994 101.537 261.747 103.351 261.747Z" fill="#E6E6E6"/>
<path d="M72.9724 158.109V171.045L69.4146 176.977L70.5093 197.76L71.395 198.307L70.783 177.251C77.0192 174.931 79.0585 179.204 78.4461 187.642L77.3514 201.861L94.8671 212.799L97.0566 190.376L105.267 186.548L114.299 224.558H265.617C271.855 224.558 276.84 219.372 276.587 213.145L274.677 166.039L269.525 160.891L264.751 105.728C263.561 91.9717 251.887 81.5012 238.07 81.7987L143.412 83.837C138.276 83.9476 133.203 84.9806 128.434 86.8866L105.541 96.036L90.764 110.8L88.5724 146.351L82.9852 145.866C78.9661 145.516 75.3006 148.17 74.3812 152.095L72.9724 158.109Z" fill="#E6E6E6"/>
<path d="M121.962 209.245C124.985 209.245 127.436 206.796 127.436 203.776C127.436 200.755 124.985 198.307 121.962 198.307C118.939 198.307 116.488 200.755 116.488 203.776C116.488 206.796 118.939 209.245 121.962 209.245Z" fill="#3F3D56"/>
<path d="M134.551 209.245C137.574 209.245 140.025 206.796 140.025 203.776C140.025 200.755 137.574 198.307 134.551 198.307C131.528 198.307 129.078 200.755 129.078 203.776C129.078 206.796 131.528 209.245 134.551 209.245Z" fill="#3F3D56"/>
<path d="M257.162 209.245C260.185 209.245 262.635 206.796 262.635 203.776C262.635 200.755 260.185 198.307 257.162 198.307C254.139 198.307 251.688 200.755 251.688 203.776C251.688 206.796 254.139 209.245 257.162 209.245Z" fill="#3F3D56"/>
<path d="M269.751 209.245C272.774 209.245 275.225 206.796 275.225 203.776C275.225 200.755 272.774 198.307 269.751 198.307C266.728 198.307 264.277 200.755 264.277 203.776C264.277 206.796 266.728 209.245 269.751 209.245Z" fill="#3F3D56"/>
<path d="M261.209 152.406H132.526C131.542 152.406 130.627 152.014 129.948 151.303C129.269 150.592 128.921 149.659 128.967 148.677L130.847 108.959C130.936 107.081 132.479 105.591 134.361 105.567L255.867 104.004C257.662 103.987 259.217 105.316 259.448 107.111L264.743 148.393C264.874 149.407 264.56 150.429 263.884 151.197C263.208 151.965 262.233 152.406 261.209 152.406Z" fill="white"/>
<path d="M114.56 150.453H106.21C105.22 150.453 104.266 150.036 103.594 149.309C102.921 148.583 102.58 147.6 102.658 146.613L105.061 116.139C105.193 114.466 106.446 113.131 108.109 112.894L116.737 111.662C117.818 111.509 118.893 111.849 119.687 112.598C120.481 113.348 120.884 114.4 120.792 115.487L118.11 147.192C117.953 149.051 116.427 150.453 114.56 150.453Z" fill="white"/>
<path d="M95.3583 149.678C95.272 149.678 95.1851 149.675 95.0983 149.669L94.1179 149.599C93.1496 149.53 92.2716 149.083 91.6462 148.342C91.0208 147.599 90.7297 146.659 90.8262 145.694L93.5232 118.746C93.6831 117.151 94.8999 115.852 96.4832 115.588C97.5622 115.407 98.6463 115.726 99.4574 116.458C100.269 117.19 100.694 118.235 100.625 119.325L98.9082 146.344C98.8475 147.298 98.4172 148.17 97.6961 148.799C97.041 149.371 96.2192 149.678 95.3583 149.678Z" fill="white"/>
<path d="M81.7817 204.658L80.3618 173.696C80.3618 173.696 77.0776 169.321 74.8881 170.415C72.6987 171.509 69.4468 177.591 69.4468 177.591C69.4468 177.591 75.793 177.176 75.6142 183.913C75.4355 190.65 76.7016 201.549 76.7016 201.549L81.7817 204.658Z" fill="#CCCCCC"/>
<path d="M95.0005 212.748L95.6882 189.649L102.651 181.432C102.651 181.432 111.956 179.424 111.759 189.959C111.562 200.494 114.572 224.831 114.572 224.831L107.768 220.561C107.768 220.561 106.088 194.478 101.162 191.744C96.2355 189.009 97.8776 191.197 97.8776 191.197L95.0005 212.748Z" fill="#CCCCCC"/>
<path d="M87.7494 153.533L82.3547 150.453H82.9438C83.7852 150.453 84.4674 149.771 84.4674 148.931V135.568C84.4674 134.727 83.7852 134.046 82.9438 134.046H77.233C76.3916 134.046 75.7095 134.727 75.7095 135.568V148.931C75.7095 149.771 76.3916 150.453 77.233 150.453H80.1484L87.2063 154.483L87.7494 153.533Z" fill="#3F3D56"/>
<path d="M95.0378 173.555L90.8295 172.346C89.8126 172.054 88.7512 172.641 88.4588 173.656C88.1664 174.672 88.7537 175.733 89.7705 176.025L93.9789 177.234C94.9958 177.526 96.0572 176.94 96.3496 175.924C96.642 174.908 96.0547 173.847 95.0378 173.555Z" fill="#3F3D56"/>
<path d="M266.483 134.729L248.488 133.953C247.431 133.908 246.537 134.727 246.492 135.783C246.446 136.839 247.266 137.732 248.323 137.778L266.317 138.554C267.374 138.6 268.268 137.78 268.314 136.724C268.36 135.668 267.54 134.775 266.483 134.729Z" fill="#3F3D56"/>
<path d="M283.451 170.825L265.456 170.049C264.399 170.003 263.505 170.823 263.46 171.879C263.414 172.935 264.234 173.828 265.291 173.874L283.286 174.65C284.343 174.695 285.237 173.876 285.282 172.82C285.328 171.764 284.508 170.871 283.451 170.825Z" fill="#3F3D56"/>
<path d="M210.088 212.526C233.063 212.526 251.688 193.917 251.688 170.961C251.688 148.006 233.063 129.397 210.088 129.397C187.113 129.397 168.488 148.006 168.488 170.961C168.488 193.917 187.113 212.526 210.088 212.526Z" fill="#3F3D56"/>
<path d="M210.088 195.572C223.692 195.572 234.72 184.554 234.72 170.962C234.72 157.37 223.692 146.351 210.088 146.351C196.484 146.351 185.457 157.37 185.457 170.962C185.457 184.554 196.484 195.572 210.088 195.572Z" fill="#E6E6E6"/>
<path d="M265.203 88.4163C265.413 90.8425 266.835 92.7013 268.381 92.5679C269.926 92.4345 271.009 90.3597 270.799 87.9327C270.728 86.962 270.426 86.0223 269.918 85.1922L268.901 74.9233L264.088 75.5029L265.601 85.5647C265.243 86.4698 265.106 87.4476 265.203 88.4163Z" fill="#FFB6B6"/>
<path d="M251.273 28.972C251.273 28.972 256.584 27.4775 258.625 30.0079C260.666 32.5383 268.281 57.3877 268.281 57.3877L270.645 84.132L263.106 81.8526L260.172 60.7611L255.246 49.8231L251.273 28.972Z" fill="#9A4FCB"/>
<path d="M249.54 12.8838H233.355V28.2181H249.54V12.8838Z" fill="#2F2E41"/>
<path d="M241.276 20.6963C245.635 20.6963 249.168 17.1662 249.168 12.8118C249.168 8.45726 245.635 4.92725 241.276 4.92725C236.918 4.92725 233.385 8.45726 233.385 12.8118C233.385 17.1662 236.918 20.6963 241.276 20.6963Z" fill="#FFB6B6"/>
<path d="M237.541 0.0587519C232.498 0.83871 232.738 2.71119 231.123 3.68323C228.278 5.39575 227.155 10.341 228.658 13.6043C229.059 14.4762 229.906 15.6657 229.495 16.95C229.18 17.9359 228.271 18.5175 228.1 18.6228C226.702 19.4849 227.615 18.4593 226.984 19.1804C226.287 19.9764 227.366 21.1007 226.705 22.5261C226.118 23.7898 224.908 23.6831 224.751 24.4778C224.481 25.8461 227.586 28.5974 230.89 28.381C233.833 28.1884 236.018 25.7031 236.75 23.3625C237.241 21.7947 237.452 19.0978 236.192 17.7864C236.015 17.6025 235.532 17.1571 235.076 16.3924C234.715 15.7872 234.239 14.9906 234.518 14.4407C234.815 13.8549 235.656 14.1633 236.192 13.6043C236.919 12.8463 236.055 11.5657 236.192 10.2586C236.424 8.04548 239.562 5.38366 242.889 5.79775C246.663 6.26749 248.048 10.3681 248.191 10.8163C248.488 11.745 248.482 12.6436 248.47 14.4407C248.453 17.0198 248.442 18.6362 247.633 20.2957C246.469 22.6825 244.985 22.4246 244.563 24.1989C243.906 26.9654 247 29.7439 247.354 30.0539C249.978 32.3521 253.941 33.0431 254.609 32.0055C255.211 31.0705 252.568 29.616 252.656 26.7082C252.732 24.1884 254.773 23.4202 254.33 21.6897C253.843 19.7848 251.243 20.2193 250.144 18.0652C249.119 16.0546 251.008 14.939 250.702 10.8163C250.638 9.94413 250.364 7.44114 248.749 4.96133C248.038 3.86884 247.314 2.75773 245.959 2.17327C244.441 1.51897 240.209 -0.353809 237.541 0.0587519Z" fill="#2F2E41"/>
<path d="M234.192 7.02896C234.397 8.75544 236.992 9.60152 238.099 9.81702C238.568 9.9083 240.152 10.2167 241.727 9.53822C242.308 9.28742 242.52 9.06062 243.122 8.98061C243.936 8.87231 244.346 9.18175 245.633 9.53822C247.064 9.93461 247.78 10.1328 248.145 9.81702C248.741 9.3008 248.283 7.612 247.586 6.47135C246.299 4.36223 243.942 3.70912 242.843 3.40448C241.587 3.05645 239.038 2.35017 236.704 3.68328C236.392 3.86152 233.984 5.27485 234.192 7.02896Z" fill="#2F2E41"/>
<path d="M272.604 162.156L276.632 162.25L278.877 144.171L272.933 144.031L272.604 162.156Z" fill="#FFB6B6"/>
<path d="M286.423 170.551C286.423 171.231 285.94 171.782 285.344 171.782H277.35C277.35 171.782 276.563 168.623 273.355 167.263L273.134 171.782H269.01L269.509 164.515C269.509 164.515 268.406 160.627 270.697 158.64C272.989 156.652 271.133 156.929 271.133 156.929L272.034 152.431L278.266 153.163L278.312 160.224L281.336 167.232L285.772 169.422C286.167 169.616 286.423 170.061 286.423 170.551Z" fill="#2F2E41"/>
<path d="M254.293 126.745L258.231 125.898L256.19 107.794L250.378 109.044L254.293 126.745Z" fill="#FFB6B6"/>
<path d="M269.691 131.685C269.85 132.346 269.509 132.995 268.93 133.134L261.156 134.999C261.156 134.999 259.653 132.11 256.216 131.536L257.057 135.982L253.047 136.944L251.835 129.761C251.835 129.761 249.854 126.238 251.617 123.771C253.381 121.304 251.641 122.006 251.641 122.006L251.466 117.422L257.697 116.68L259.391 123.535L263.97 129.644L268.795 130.738C269.224 130.836 269.576 131.208 269.691 131.685Z" fill="#2F2E41"/>
<path d="M246.762 21.6577L236.909 22.2046L234.172 27.6736L223.772 33.1426L225.414 60.1109L221.662 73.6752L222.13 77.4416L258.804 76.3478L256.614 35.8771L257.162 29.3143L250.046 27.1267L246.762 21.6577Z" fill="#9A4FCB"/>
<path d="M222.404 72.2457C222.404 72.2457 214.193 86.7408 222.404 88.7906C226.056 89.7024 229.925 90.3169 233.095 90.7181C236.891 91.1984 240.385 88.5952 241.014 84.8245L249.772 114.904L258.53 112.716L260.172 97.0587L270.813 107.691L269.477 150.453L279.33 149.906L289.73 103.419C289.73 103.419 290.277 100.138 282.067 95.7625C273.856 91.3873 259.077 77.1678 259.077 77.1678L233.898 69.5112L222.404 72.2457Z" fill="#2F2E41"/>
<path d="M239.646 81.8169L225.414 72.5195L242.93 53.9249C242.93 53.9249 252.782 50.0966 255.519 64.8629C258.256 79.6292 259.898 92.7549 259.898 92.7549L239.646 81.8169Z" fill="#2F2E41"/>
<path d="M210.282 54.0603L210.906 49.8228C211.36 46.7346 209.31 44.0395 206.53 43.3761V41.6193C206.53 40.1091 205.305 38.8848 203.793 38.8848C202.282 38.8848 201.056 40.1091 201.056 41.6193V43.9627L190.656 46.1669V43.26C190.656 41.7498 189.431 40.5255 187.92 40.5255C186.408 40.5255 185.183 41.7498 185.183 43.26V46.0227L184.149 45.7532C181.061 44.9484 178.622 48.488 180.542 51.0342C180.567 51.0671 180.592 51.1 180.618 51.133C183.182 54.4262 183.914 57.3535 183.914 57.3535L182.083 67.2331L184.169 87.7734C184.437 90.4208 186.718 92.4044 189.379 92.3059L209.628 91.5566C212.287 91.4582 214.416 89.3158 214.489 86.6579C214.746 77.1907 214.776 56.586 210.282 54.0603Z" fill="#3F3D56"/>
<path d="M192.153 89.5517C191.87 89.5517 191.63 89.333 191.608 89.0457L190.509 74.4091C190.487 74.1079 190.713 73.8454 191.014 73.823C191.313 73.7995 191.578 74.0262 191.601 74.3274L192.7 88.964C192.722 89.2652 192.496 89.5277 192.195 89.5501C192.181 89.5512 192.167 89.5517 192.153 89.5517Z" fill="#FFB6B6"/>
<path d="M183.913 57.9005C183.646 57.9005 183.412 57.7047 183.373 57.4329C183.329 57.1341 183.536 56.8563 183.835 56.8125L210.288 52.9388C210.588 52.8956 210.865 53.1017 210.909 53.4006C210.953 53.6994 210.746 53.9771 210.447 54.0209L183.993 57.8946C183.966 57.8986 183.94 57.9005 183.913 57.9005Z" fill="#FFB6B6"/>
<path d="M28.5159 216.363C28.3315 216.052 27.5337 216.385 27.387 216.103C27.2409 215.822 27.9821 215.394 28.4056 214.416C28.482 214.24 28.9633 213.128 28.607 212.785C27.9317 212.135 24.8414 214.818 23.7599 213.94C23.5226 213.747 23.3568 213.363 22.6384 212.738C22.3527 212.49 22.1799 212.378 22.0126 212.42C21.7754 212.479 21.7565 212.796 21.5021 213.42C21.1205 214.356 20.8948 214.299 20.6725 215.046C20.5074 215.6 20.5451 215.922 20.3509 215.985C20.0761 216.074 19.8231 215.486 19.4748 215.539C19.1194 215.592 18.9045 216.277 18.8366 216.789C18.7093 217.751 19.0627 218.385 19.2586 219.052C19.4715 219.777 19.5978 220.88 19.1062 222.441L14.2402 236.139C15.3145 233.329 18.425 225.623 19.732 222.76C20.1093 221.933 20.5259 221.095 21.3813 220.764C22.2049 220.445 23.336 220.636 24.778 220.289C24.9464 220.248 25.4137 220.129 25.4725 219.855C25.5211 219.628 25.2463 219.501 25.2885 219.288C25.3451 219.003 25.8857 218.999 26.55 218.67C27.0184 218.438 27.3102 218.162 27.5612 217.925C27.6368 217.853 28.7614 216.777 28.5159 216.363Z" fill="#F2F2F2"/>
<path d="M9.37152 223.575C9.16569 223.575 9.09891 224.063 8.91808 224.053C8.7379 224.044 8.74149 223.557 8.3833 223.067C8.31871 222.979 7.91165 222.422 7.6404 222.498C7.12625 222.641 7.55226 224.931 6.80902 225.208C6.64591 225.269 6.40916 225.239 5.89518 225.411C5.69071 225.48 5.58577 225.532 5.55801 225.626C5.51863 225.759 5.66907 225.86 5.90214 226.165C6.25166 226.622 6.15878 226.717 6.46133 227.041C6.68593 227.282 6.85507 227.356 6.82987 227.47C6.79421 227.63 6.43247 227.584 6.35783 227.77C6.28167 227.96 6.55586 228.263 6.78799 228.444C7.22359 228.784 7.63726 228.794 8.02153 228.89C8.43913 228.995 9.01725 229.251 9.64221 229.943L14.9671 236.281C13.8963 234.944 11.0088 231.195 9.97938 229.728C9.68221 229.304 9.39057 228.858 9.47484 228.343C9.55597 227.847 9.97576 227.348 10.2213 226.54C10.25 226.446 10.3265 226.183 10.2085 226.075C10.111 225.985 9.96947 226.083 9.87719 226.001C9.75342 225.891 9.90767 225.625 9.93768 225.205C9.95883 224.908 9.90747 224.685 9.86329 224.494C9.84997 224.436 9.64553 223.574 9.37152 223.575Z" fill="#F2F2F2"/>
<path d="M13.4775 224.496L13.3535 223.39L13.4102 223.306C13.6724 222.918 13.806 222.539 13.8076 222.18C13.8079 222.123 13.8052 222.066 13.8025 222.007C13.7918 221.777 13.7785 221.49 13.9281 221.155C14.0121 220.969 14.2478 220.538 14.6022 220.591C14.6976 220.604 14.7698 220.648 14.8246 220.699L14.8497 220.66C14.9601 220.492 15.0475 220.42 15.1317 220.35C15.1963 220.297 15.2632 220.242 15.3679 220.111C15.4139 220.054 15.4497 220.004 15.4799 219.962C15.5716 219.834 15.6913 219.682 15.9025 219.685C16.128 219.695 16.2462 219.882 16.3245 220.005C16.4643 220.225 16.5276 220.384 16.5696 220.489C16.5848 220.527 16.6022 220.571 16.611 220.584C16.6837 220.691 17.2746 220.591 17.4973 220.555C17.9973 220.471 18.43 220.399 18.6083 220.714C18.736 220.94 18.6412 221.238 18.3178 221.624C18.217 221.744 18.1098 221.835 18.0147 221.907C18.0935 221.954 18.1641 222.026 18.1927 222.139C18.26 222.407 18.0294 222.676 17.5074 222.939C17.3778 223.004 17.2033 223.092 16.9587 223.134C16.8435 223.154 16.7398 223.159 16.6511 223.161C16.6492 223.213 16.6372 223.268 16.6059 223.325C16.5142 223.494 16.3234 223.574 16.0358 223.555C15.7194 223.538 15.4588 223.478 15.229 223.425C15.0282 223.379 14.8553 223.34 14.7195 223.349C14.4678 223.369 14.2737 223.571 14.046 223.832L13.4775 224.496Z" fill="#F2F2F2"/>
<path d="M14.053 217.91L13.0137 218.31L12.9181 218.277C12.4762 218.122 12.0757 218.089 11.7274 218.178C11.672 218.193 11.6173 218.21 11.5616 218.227C11.341 218.296 11.0667 218.382 10.7051 218.322C10.5033 218.288 10.0257 218.17 9.98756 217.813C9.97629 217.718 10.0004 217.637 10.0361 217.571L9.99149 217.557C9.80061 217.493 9.70865 217.427 9.62007 217.363C9.55196 217.314 9.48176 217.263 9.32902 217.195C9.26203 217.165 9.20435 217.143 9.15584 217.125C9.00901 217.068 8.83128 216.991 8.78031 216.787C8.73343 216.566 8.88392 216.404 8.98349 216.298C9.16107 216.107 9.29856 216.005 9.38978 215.938C9.42314 215.913 9.46062 215.886 9.47131 215.874C9.55629 215.776 9.3097 215.231 9.21807 215.025C9.01057 214.562 8.83101 214.163 9.09086 213.91C9.27665 213.73 9.58924 213.746 10.0451 213.96C10.187 214.027 10.3026 214.108 10.396 214.182C10.4215 214.093 10.4734 214.007 10.5758 213.951C10.8183 213.817 11.1368 213.972 11.5236 214.41C11.6201 214.519 11.7492 214.665 11.8521 214.891C11.9004 214.997 11.9314 215.096 11.9565 215.181C12.0066 215.17 12.0634 215.168 12.1267 215.183C12.3128 215.229 12.4387 215.393 12.4931 215.676C12.5573 215.986 12.565 216.253 12.5721 216.489C12.5785 216.695 12.5847 216.872 12.6279 217C12.7114 217.239 12.9555 217.375 13.2661 217.529L14.053 217.91Z" fill="#F2F2F2"/>
<path d="M13.4775 214.651L13.3535 213.545L13.4102 213.461C13.6724 213.074 13.806 212.695 13.8076 212.336C13.8079 212.278 13.8052 212.221 13.8025 212.163C13.7918 211.932 13.7785 211.646 13.9281 211.311C14.0121 211.125 14.2478 210.693 14.6022 210.747C14.6976 210.76 14.7698 210.804 14.8246 210.855L14.8497 210.816C14.9601 210.647 15.0475 210.575 15.1317 210.506C15.1963 210.452 15.2632 210.397 15.3679 210.267C15.4139 210.21 15.4497 210.16 15.4799 210.118C15.5716 209.99 15.6913 209.838 15.9025 209.84C16.128 209.851 16.2462 210.037 16.3245 210.161C16.4643 210.381 16.5276 210.539 16.5696 210.645C16.5848 210.683 16.6022 210.726 16.611 210.74C16.6837 210.847 17.2746 210.747 17.4973 210.71C17.9973 210.627 18.43 210.555 18.6083 210.87C18.736 211.095 18.6412 211.393 18.3178 211.78C18.217 211.9 18.1098 211.991 18.0147 212.063C18.0935 212.11 18.1641 212.182 18.1927 212.295C18.26 212.563 18.0294 212.832 17.5074 213.095C17.3778 213.16 17.2033 213.248 16.9587 213.29C16.8435 213.31 16.7398 213.315 16.6511 213.317C16.6492 213.369 16.6372 213.424 16.6059 213.481C16.5142 213.649 16.3234 213.73 16.0358 213.71C15.7194 213.694 15.4588 213.633 15.229 213.581C15.0282 213.535 14.8553 213.496 14.7195 213.505C14.4678 213.525 14.2737 213.726 14.046 213.988L13.4775 214.651Z" fill="#F2F2F2"/>
<path d="M14.6101 236.122L14.3781 235.976L14.1076 236.007C14.1034 235.982 14.0887 235.925 14.0665 235.834C13.9454 235.34 13.5763 233.835 13.2684 231.465C13.0535 229.81 12.9319 228.109 12.9068 226.408C12.8817 224.704 12.9624 223.414 13.0271 222.378C13.076 221.596 13.1353 220.851 13.1936 220.126C13.3486 218.188 13.4948 216.358 13.386 214.332C13.362 213.879 13.3114 212.938 12.7609 211.936C12.4415 211.355 12.0016 210.839 11.4531 210.403L11.7942 209.975C12.3995 210.456 12.8862 211.028 13.2409 211.673C13.8513 212.784 13.9064 213.81 13.9329 214.303C14.0435 216.365 13.8957 218.213 13.7391 220.169C13.6814 220.892 13.622 221.633 13.5734 222.412C13.5092 223.439 13.4293 224.717 13.4542 226.399C13.4788 228.08 13.599 229.76 13.811 231.394C14.1151 233.734 14.4789 235.217 14.5984 235.704C14.662 235.964 14.6753 236.019 14.6101 236.122Z" fill="#F2F2F2"/>
<path d="M10.4496 211.272C10.4271 211.272 10.4044 211.271 10.3814 211.27C9.91529 211.244 9.48364 210.966 9.09824 210.441C8.91757 210.194 8.8251 209.913 8.64068 209.352C8.61208 209.265 8.4731 208.826 8.38864 208.222C8.33332 207.827 8.34027 207.662 8.41858 207.517C8.50544 207.354 8.64602 207.241 8.80425 207.165C8.79729 207.112 8.80291 207.058 8.82563 207.003C8.9189 206.775 9.16693 206.805 9.3011 206.82C9.36898 206.828 9.45371 206.839 9.54511 206.835C9.68891 206.828 9.76615 206.785 9.88321 206.721C9.9952 206.659 10.1344 206.583 10.341 206.541C10.7484 206.456 11.0897 206.571 11.2022 206.609C11.7942 206.806 12.086 207.266 12.4239 207.799C12.4912 207.905 12.7224 208.294 12.875 208.827C12.9851 209.212 12.9696 209.383 12.9365 209.51C12.8691 209.771 12.7101 209.92 12.3063 210.25C11.8845 210.596 11.6728 210.769 11.4911 210.874C11.068 211.118 10.8023 211.272 10.4496 211.272Z" fill="#F2F2F2"/>
<path d="M334.609 154.056L334.861 134.513L327.352 132.449L327.58 154.059L325.852 170.027L325.897 170.044C325.173 170.772 324.585 171.933 324.335 173.306C323.879 175.811 324.715 178.061 326.204 178.332C327.693 178.603 329.269 176.792 329.726 174.287C329.913 173.258 329.88 172.276 329.676 171.452L329.743 171.477L334.609 154.056Z" fill="#A0616A"/>
<path d="M320.954 108.117C320.954 108.117 324.362 105.513 326.767 109.318C329.172 113.123 335.787 132.349 335.787 132.349C335.787 132.349 337.7 141.161 337.244 142.462C336.789 143.764 336.188 155.221 336.188 155.221L326.79 153.518L327.017 142.462L318.062 128.18L320.954 108.117Z" fill="#CCCCCC"/>
<path d="M258.016 101.019L271.185 115.471L278.082 111.857L263.151 96.2218L253.502 83.3753L253.458 83.3936C253.49 82.368 253.125 81.1186 252.37 79.9449C250.992 77.803 248.843 76.7294 247.57 77.547C246.298 78.3645 246.383 80.7636 247.761 82.9055C248.327 83.7847 249.023 84.4799 249.734 84.9421L249.668 84.9695L258.016 101.019Z" fill="#A0616A"/>
<path d="M300.135 125.273C300.135 125.273 299.424 129.499 295.067 128.359C290.709 127.22 272.74 117.683 272.74 117.683C272.74 117.683 265.321 112.549 264.764 111.288C264.208 110.026 256.819 101.244 256.819 101.244L264.849 96.0781L272.237 104.312L288.54 108.639L300.135 125.273Z" fill="#CCCCCC"/>
<path d="M302.631 97.069C308.407 97.069 313.09 92.3903 313.09 86.619C313.09 80.8476 308.407 76.1689 302.631 76.1689C296.854 76.1689 292.172 80.8476 292.172 86.619C292.172 92.3903 296.854 97.069 302.631 97.069Z" fill="#A0616A"/>
<path d="M320.979 269.685L314.487 269.685L311.399 244.668L320.98 244.669L320.979 269.685Z" fill="#A0616A"/>
<path d="M298.738 269.538C298.536 269.878 298.43 270.976 298.43 271.372C298.43 272.587 299.416 273.573 300.633 273.573H320.736C321.566 273.573 322.239 272.901 322.239 272.071V271.235C322.239 271.235 323.233 268.722 321.186 265.624C321.186 265.624 318.641 268.049 314.839 264.25L313.717 262.221L305.601 268.152L301.102 268.705C300.117 268.826 299.245 268.686 298.738 269.538Z" fill="#2F2E41"/>
<path d="M302.368 269.685L295.877 269.685L292.789 244.668L302.37 244.669L302.368 269.685Z" fill="#A0616A"/>
<path d="M280.128 269.538C279.926 269.878 279.819 270.976 279.819 271.372C279.819 272.587 280.806 273.573 282.023 273.573H302.125C302.955 273.573 303.628 272.901 303.628 272.071V271.235C303.628 271.235 304.623 268.722 302.575 265.624C302.575 265.624 300.031 268.049 296.228 264.25L295.107 262.221L286.99 268.152L282.491 268.705C281.507 268.826 280.634 268.686 280.128 269.538Z" fill="#2F2E41"/>
<path d="M325.582 161.117L283.435 163.305L292.74 258.466L302.046 257.919L305.33 200.494L306.698 179.985L312.28 256.345L321.751 256.278L325.582 161.117Z" fill="#2F2E41"/>
<path d="M313.096 99.8643L297.133 99.3174L286.445 109.937V144.725L282.271 166.586C282.271 166.586 310.344 163.852 315.848 169.321C321.353 174.79 331.261 170.961 331.261 170.961L326.307 142.038L324.105 108.615L313.096 99.8643Z" fill="#CCCCCC"/>
<path d="M307.235 96.8565L298.337 94.7563L296.964 89.3664C296.964 89.3664 296.931 86.8257 295.731 86.5423C294.53 86.259 292.413 84.4927 292.413 84.4927L294.464 81.1776C294.464 81.1776 289.52 80.6438 291.004 79.7277C292.489 78.8116 292.703 79.2243 292.914 77.0123C293.35 72.4355 307.366 73.1036 308.455 75.6148C308.455 75.6148 310.256 76.0398 311.173 77.5227C312.089 79.0056 312.548 79.747 313.148 79.8887C313.748 80.0304 314.065 81.3716 314.065 81.3716C314.065 81.3716 316.183 83.1378 315.44 83.5959C314.698 84.054 314.131 86.453 314.131 86.453C314.131 86.453 316.107 88.819 311.687 94.1081L309.333 97.8927L307.235 96.8565Z" fill="#2F2E41"/>
<path d="M318.661 112.225L319.284 107.988C319.739 104.9 317.689 102.205 314.908 101.541V99.7843C314.908 98.2741 313.683 97.0498 312.172 97.0498C310.66 97.0498 309.435 98.2741 309.435 99.7843V102.128L299.035 104.332V101.425C299.035 99.9148 297.809 98.6905 296.298 98.6905C294.786 98.6905 293.561 99.9148 293.561 101.425V104.188L292.527 103.918C289.44 103.113 287 106.653 288.921 109.199C288.946 109.232 288.971 109.265 288.996 109.298C291.56 112.591 292.292 115.519 292.292 115.519L290.461 125.398L292.547 145.938C292.816 148.586 295.096 150.569 297.758 150.471L318.006 149.722C320.666 149.623 322.794 147.481 322.867 144.823C323.125 135.356 323.155 114.751 318.661 112.225Z" fill="#3F3D56"/>
<path d="M300.532 147.717C300.248 147.717 300.008 147.498 299.987 147.211L298.888 132.574C298.866 132.273 299.092 132.01 299.393 131.988C299.692 131.965 299.957 132.191 299.98 132.492L301.079 147.129C301.101 147.43 300.875 147.693 300.574 147.715C300.56 147.716 300.546 147.717 300.532 147.717Z" fill="#FFB6B6"/>
<path d="M292.292 116.066C292.025 116.066 291.791 115.87 291.751 115.598C291.707 115.299 291.914 115.021 292.213 114.978L318.667 111.104C318.966 111.061 319.244 111.267 319.288 111.566C319.332 111.864 319.125 112.142 318.826 112.186L292.372 116.06C292.345 116.064 292.318 116.066 292.292 116.066Z" fill="#FFB6B6"/>
<path d="M293.499 148.593L283.161 123.655L285.898 124.749L296.908 146.844L293.499 148.593Z" fill="#3F3D56"/>
<path d="M358 273.54C358 273.794 357.794 274 357.54 274H38.8633V273.081H357.54C357.794 273.081 358 273.287 358 273.54Z" fill="#E6E6E6"/>
<path d="M245.043 78.5735C246.818 80.2421 249.119 80.6795 250.181 79.5505C251.244 78.4216 250.666 76.1541 248.89 74.4851C248.19 73.8087 247.338 73.3097 246.405 73.0298L238.794 66.0547L235.594 69.6931L243.437 76.1831C243.773 77.0966 244.324 77.9163 245.043 78.5735Z" fill="#FFB6B6"/>
<path d="M238.53 42.4351C238.53 42.4351 229.25 30.8852 225.688 31.775C221.309 32.8688 222.404 37.244 217.874 48.9456C216.74 51.8761 215.549 54.7164 217.838 56.8706L224.15 62.8104L237.607 74.1467L243.02 68.4845L232.265 54.6277L238.53 42.4351Z" fill="#9A4FCB"/>
</g>
<defs>
<clipPath id="clip0_3488_36365">
<rect width="358" height="274" fill="white"/>
</clipPath>
</defs>
</svg>
